<?xml version="1.0" encoding="UTF-8" standalone="no"?>
<!DOCTYPE svg PUBLIC "-//W3C//DTD SVG 1.1//EN"
 "http://www.w3.org/Graphics/SVG/1.1/DTD/svg11.dtd">
<!-- Generated by graphviz version 2.26.0 (20091210.2329)
 -->
<!-- Title: BrickMk2ConfigPort Pages: 1 -->
<svg width="288pt" height="902pt"
 viewBox="0.00 0.00 288.00 902.00" xmlns="http://www.w3.org/2000/svg" xmlns:xlink="http://www.w3.org/1999/xlink">
<g id="graph1" class="graph" transform="scale(1 1) rotate(0) translate(4 898)">
<title>BrickMk2ConfigPort</title>
<polygon fill="white" stroke="white" points="-4,5 -4,-898 285,-898 285,5 -4,5"/>
<!-- Node0 -->
<g id="node1" class="node"><title>Node0</title>
<polygon fill="#bfbfbf" stroke="black" points="73.5,-152.5 73.5,-267.5 198.5,-267.5 198.5,-152.5 73.5,-152.5"/>
<text text-anchor="middle" x="136" y="-254.5" font-family="Helvetica,sans-Serif" font-size="10.00">BrickMk2ConfigPort</text>
<polyline fill="none" stroke="black" points="73.5,-246.5 198.5,-246.5 "/>
<text text-anchor="middle" x="136" y="-233.5" font-family="Helvetica,sans-Serif" font-size="10.00"> </text>
<polyline fill="none" stroke="black" points="73.5,-225.5 198.5,-225.5 "/>
<text text-anchor="start" x="81.5" y="-212.5" font-family="Helvetica,sans-Serif" font-size="10.00">+ BrickMk2ConfigPort()</text>
<text text-anchor="start" x="81.5" y="-199.5" font-family="Helvetica,sans-Serif" font-size="10.00">+ BrickMk2ConfigPort()</text>
<text text-anchor="start" x="81.5" y="-186.5" font-family="Helvetica,sans-Serif" font-size="10.00">+ BrickMk2ConfigPort()</text>
<text text-anchor="start" x="81.5" y="-173.5" font-family="Helvetica,sans-Serif" font-size="10.00">+ operator=()</text>
<text text-anchor="start" x="81.5" y="-160.5" font-family="Helvetica,sans-Serif" font-size="10.00">+ ~BrickMk2ConfigPort()</text>
</g>
<!-- Node4 -->
<g id="node9" class="node"><title>Node4</title>
<a xlink:href="a01197.xhtml" target="_top" xlink:title="Represents a Configuration Port on a Brick Mk3 device. ">
<polygon fill="white" stroke="black" points="-0.5,-0.5 -0.5,-115.5 124.5,-115.5 124.5,-0.5 -0.5,-0.5"/>
<text text-anchor="middle" x="62" y="-102.5" font-family="Helvetica,sans-Serif" font-size="10.00">BrickMk3ConfigPort</text>
<polyline fill="none" stroke="black" points="-0.5,-94.5 124.5,-94.5 "/>
<text text-anchor="middle" x="62" y="-81.5" font-family="Helvetica,sans-Serif" font-size="10.00"> </text>
<polyline fill="none" stroke="black" points="-0.5,-73.5 124.5,-73.5 "/>
<text text-anchor="start" x="7.5" y="-60.5" font-family="Helvetica,sans-Serif" font-size="10.00">+ BrickMk3ConfigPort()</text>
<text text-anchor="start" x="7.5" y="-47.5" font-family="Helvetica,sans-Serif" font-size="10.00">+ BrickMk3ConfigPort()</text>
<text text-anchor="start" x="7.5" y="-34.5" font-family="Helvetica,sans-Serif" font-size="10.00">+ BrickMk3ConfigPort()</text>
<text text-anchor="start" x="7.5" y="-21.5" font-family="Helvetica,sans-Serif" font-size="10.00">+ operator=()</text>
<text text-anchor="start" x="7.5" y="-8.5" font-family="Helvetica,sans-Serif" font-size="10.00">+ ~BrickMk3ConfigPort()</text>
</a>
</g>
<!-- Node0&#45;&gt;Node4 -->
<g id="edge8" class="edge"><title>Node0&#45;&gt;Node4</title>
<path fill="none" stroke="midnightblue" d="M103.415,-143.068C98.9788,-133.956 94.4568,-124.668 90.109,-115.737"/>
<polygon fill="none" stroke="midnightblue" points="100.288,-144.643 107.813,-152.102 106.582,-141.579 100.288,-144.643"/>
</g>
<!-- Node5 -->
<g id="node11" class="node"><title>Node5</title>
<a xlink:href="a01585.xhtml" target="_top" xlink:title="Represents a Configuration Port on a Router Mk2S device. ">
<polygon fill="white" stroke="black" points="141.5,-0.5 141.5,-115.5 280.5,-115.5 280.5,-0.5 141.5,-0.5"/>
<text text-anchor="middle" x="211" y="-102.5" font-family="Helvetica,sans-Serif" font-size="10.00">RouterMk2SConfigPort</text>
<polyline fill="none" stroke="black" points="141.5,-94.5 280.5,-94.5 "/>
<text text-anchor="middle" x="211" y="-81.5" font-family="Helvetica,sans-Serif" font-size="10.00"> </text>
<polyline fill="none" stroke="black" points="141.5,-73.5 280.5,-73.5 "/>
<text text-anchor="start" x="149.5" y="-60.5" font-family="Helvetica,sans-Serif" font-size="10.00">+ RouterMk2SConfigPort()</text>
<text text-anchor="start" x="149.5" y="-47.5" font-family="Helvetica,sans-Serif" font-size="10.00">+ RouterMk2SConfigPort()</text>
<text text-anchor="start" x="149.5" y="-34.5" font-family="Helvetica,sans-Serif" font-size="10.00">+ RouterMk2SConfigPort()</text>
<text text-anchor="start" x="149.5" y="-21.5" font-family="Helvetica,sans-Serif" font-size="10.00">+ operator=()</text>
<text text-anchor="start" x="149.5" y="-8.5" font-family="Helvetica,sans-Serif" font-size="10.00">+ ~RouterMk2SConfigPort()</text>
</a>
</g>
<!-- Node0&#45;&gt;Node5 -->
<g id="edge10" class="edge"><title>Node0&#45;&gt;Node5</title>
<path fill="none" stroke="midnightblue" d="M169.025,-143.068C173.522,-133.956 178.105,-124.668 182.511,-115.737"/>
<polygon fill="none" stroke="midnightblue" points="165.854,-141.585 164.568,-152.102 172.132,-144.683 165.854,-141.585"/>
</g>
<!-- Node1 -->
<g id="node2" class="node"><title>Node1</title>
<a xlink:href="a01365.xhtml" target="_top" xlink:title="Represents a Configuration Port on a Mk2 device. ">
<polygon fill="white" stroke="black" points="84.5,-304.5 84.5,-419.5 187.5,-419.5 187.5,-304.5 84.5,-304.5"/>
<text text-anchor="middle" x="136" y="-406.5" font-family="Helvetica,sans-Serif" font-size="10.00">Mk2ConfigPort</text>
<polyline fill="none" stroke="black" points="84.5,-398.5 187.5,-398.5 "/>
<text text-anchor="middle" x="136" y="-385.5" font-family="Helvetica,sans-Serif" font-size="10.00"> </text>
<polyline fill="none" stroke="black" points="84.5,-377.5 187.5,-377.5 "/>
<text text-anchor="start" x="92.5" y="-364.5" font-family="Helvetica,sans-Serif" font-size="10.00">+ Mk2ConfigPort()</text>
<text text-anchor="start" x="92.5" y="-351.5" font-family="Helvetica,sans-Serif" font-size="10.00">+ Mk2ConfigPort()</text>
<text text-anchor="start" x="92.5" y="-338.5" font-family="Helvetica,sans-Serif" font-size="10.00">+ Mk2ConfigPort()</text>
<text text-anchor="start" x="92.5" y="-325.5" font-family="Helvetica,sans-Serif" font-size="10.00">+ operator=()</text>
<text text-anchor="start" x="92.5" y="-312.5" font-family="Helvetica,sans-Serif" font-size="10.00">+ ~Mk2ConfigPort()</text>
</a>
</g>
<!-- Node1&#45;&gt;Node0 -->
<g id="edge2" class="edge"><title>Node1&#45;&gt;Node0</title>
<path fill="none" stroke="midnightblue" d="M136,-293.928C136,-285.183 136,-276.296 136,-267.737"/>
<polygon fill="none" stroke="midnightblue" points="132.5,-294.102 136,-304.102 139.5,-294.102 132.5,-294.102"/>
</g>
<!-- Node2 -->
<g id="node4" class="node"><title>Node2</title>
<a xlink:href="a01249.xhtml" target="_top" xlink:title="Represents a Configuration Port on a device. ">
<polygon fill="white" stroke="black" points="94,-456.5 94,-597.5 178,-597.5 178,-456.5 94,-456.5"/>
<text text-anchor="middle" x="136" y="-584.5" font-family="Helvetica,sans-Serif" font-size="10.00">ConfigPort</text>
<polyline fill="none" stroke="black" points="94,-576.5 178,-576.5 "/>
<text text-anchor="middle" x="136" y="-563.5" font-family="Helvetica,sans-Serif" font-size="10.00"> </text>
<polyline fill="none" stroke="black" points="94,-555.5 178,-555.5 "/>
<text text-anchor="start" x="102" y="-542.5" font-family="Helvetica,sans-Serif" font-size="10.00">+ ConfigPort()</text>
<text text-anchor="start" x="102" y="-529.5" font-family="Helvetica,sans-Serif" font-size="10.00">+ ConfigPort()</text>
<text text-anchor="start" x="102" y="-516.5" font-family="Helvetica,sans-Serif" font-size="10.00">+ ConfigPort()</text>
<text text-anchor="start" x="102" y="-503.5" font-family="Helvetica,sans-Serif" font-size="10.00">+ operator=()</text>
<text text-anchor="start" x="102" y="-490.5" font-family="Helvetica,sans-Serif" font-size="10.00">+ ~ConfigPort()</text>
<text text-anchor="start" x="102" y="-477.5" font-family="Helvetica,sans-Serif" font-size="10.00">+ GetErrors()</text>
<text text-anchor="start" x="102" y="-464.5" font-family="Helvetica,sans-Serif" font-size="10.00">+ GetStatus()</text>
</a>
</g>
<!-- Node2&#45;&gt;Node1 -->
<g id="edge4" class="edge"><title>Node2&#45;&gt;Node1</title>
<path fill="none" stroke="midnightblue" d="M136,-446.054C136,-437.156 136,-428.234 136,-419.702"/>
<polygon fill="none" stroke="midnightblue" points="132.5,-446.068 136,-456.068 139.5,-446.068 132.5,-446.068"/>
</g>
<!-- Node3 -->
<g id="node6" class="node"><title>Node3</title>
<a xlink:href="a01437.xhtml" target="_top" xlink:title="Base class for ports on a device. ">
<polygon fill="white" stroke="black" points="70,-635 70,-893 202,-893 202,-635 70,-635"/>
<text text-anchor="middle" x="136" y="-880" font-family="Helvetica,sans-Serif" font-size="10.00">Port</text>
<polyline fill="none" stroke="black" points="70,-872 202,-872 "/>
<text text-anchor="start" x="78" y="-859" font-family="Helvetica,sans-Serif" font-size="10.00"># owningDeviceForPort</text>
<text text-anchor="start" x="78" y="-846" font-family="Helvetica,sans-Serif" font-size="10.00"># portType</text>
<text text-anchor="start" x="78" y="-833" font-family="Helvetica,sans-Serif" font-size="10.00"># portNumber</text>
<text text-anchor="start" x="78" y="-820" font-family="Helvetica,sans-Serif" font-size="10.00"># portStatusControl</text>
<polyline fill="none" stroke="black" points="70,-812 202,-812 "/>
<text text-anchor="start" x="78" y="-799" font-family="Helvetica,sans-Serif" font-size="10.00">+ Port()</text>
<text text-anchor="start" x="78" y="-786" font-family="Helvetica,sans-Serif" font-size="10.00">+ Port()</text>
<text text-anchor="start" x="78" y="-773" font-family="Helvetica,sans-Serif" font-size="10.00">+ Port()</text>
<text text-anchor="start" x="78" y="-760" font-family="Helvetica,sans-Serif" font-size="10.00">+ operator=()</text>
<text text-anchor="start" x="78" y="-747" font-family="Helvetica,sans-Serif" font-size="10.00">+ ~Port()</text>
<text text-anchor="start" x="78" y="-734" font-family="Helvetica,sans-Serif" font-size="10.00">+ ClearErrors()</text>
<text text-anchor="start" x="78" y="-721" font-family="Helvetica,sans-Serif" font-size="10.00">+ GetType()</text>
<text text-anchor="start" x="78" y="-708" font-family="Helvetica,sans-Serif" font-size="10.00">+ GetPortNumber()</text>
<text text-anchor="start" x="78" y="-695" font-family="Helvetica,sans-Serif" font-size="10.00">+ GetPortConnection()</text>
<text text-anchor="start" x="78" y="-682" font-family="Helvetica,sans-Serif" font-size="10.00">+ GetPortStatusControl()</text>
<text text-anchor="start" x="78" y="-669" font-family="Helvetica,sans-Serif" font-size="10.00">+ GetIDOfOwningDevice()</text>
<text text-anchor="start" x="78" y="-656" font-family="Helvetica,sans-Serif" font-size="10.00">+ GetErrors()</text>
<text text-anchor="start" x="78" y="-643" font-family="Helvetica,sans-Serif" font-size="10.00">+ GetStatus()</text>
</a>
</g>
<!-- Node3&#45;&gt;Node2 -->
<g id="edge6" class="edge"><title>Node3&#45;&gt;Node2</title>
<path fill="none" stroke="midnightblue" d="M136,-624.613C136,-615.323 136,-606.21 136,-597.512"/>
<polygon fill="none" stroke="midnightblue" points="132.5,-624.751 136,-634.751 139.5,-624.751 132.5,-624.751"/>
</g>
</g>
</svg>
