<?xml version="1.0" encoding="UTF-8" standalone="no"?>
<!DOCTYPE svg PUBLIC "-//W3C//DTD SVG 1.1//EN"
 "http://www.w3.org/Graphics/SVG/1.1/DTD/svg11.dtd">
<!-- Generated by graphviz version 2.26.0 (20091210.2329)
 -->
<!-- Title: GetPortConnection Pages: 1 -->
<svg width="510pt" height="287pt"
 viewBox="0.00 0.00 510.00 287.00" xmlns="http://www.w3.org/2000/svg" xmlns:xlink="http://www.w3.org/1999/xlink">
<g id="graph1" class="graph" transform="scale(1 1) rotate(0) translate(4 283)">
<title>GetPortConnection</title>
<polygon fill="white" stroke="white" points="-4,5 -4,-283 507,-283 507,5 -4,5"/>
<!-- Node96 -->
<g id="node1" class="node"><title>Node96</title>
<polygon fill="#bfbfbf" stroke="black" points="0,-98.5 0,-119.5 100,-119.5 100,-98.5 0,-98.5"/>
<text text-anchor="middle" x="50" y="-106.5" font-family="Helvetica,sans-Serif" font-size="10.00">GetPortConnection</text>
</g>
<!-- Node97 -->
<g id="node3" class="node"><title>Node97</title>
<a xlink:href="a01273.xhtml#a8cc6f9767b76f81ac7c949e8ee7a68df" target="_top" xlink:title="Create and return an instance of a Port object which corresponds to the given port number on the give...">
<polygon fill="white" stroke="black" points="193,-201.5 193,-222.5 257,-222.5 257,-201.5 193,-201.5"/>
<text text-anchor="middle" x="225" y="-209.5" font-family="Helvetica,sans-Serif" font-size="10.00">CreatePort</text>
</a>
</g>
<!-- Node96&#45;&gt;Node97 -->
<g id="edge2" class="edge"><title>Node96&#45;&gt;Node97</title>
<path fill="none" stroke="midnightblue" d="M61.8175,-119.689C77.7693,-133.725 107.488,-158.512 136,-175 151.235,-183.81 168.974,-191.626 184.587,-197.778"/>
<polygon fill="midnightblue" stroke="midnightblue" points="183.403,-201.072 193.993,-201.387 185.911,-194.537 183.403,-201.072"/>
</g>
<!-- Node101 -->
<g id="node11" class="node"><title>Node101</title>
<a xlink:href="a01437.xhtml#a17d5c4929105df0f65ed145625e7ceba" target="_top" xlink:title="Get the id of the device which &#39;owns&#39; the port. ">
<polygon fill="white" stroke="black" points="136.5,-118.5 136.5,-165.5 313.5,-165.5 313.5,-118.5 136.5,-118.5"/>
<text text-anchor="start" x="144.5" y="-152.5" font-family="Helvetica,sans-Serif" font-size="10.00">stardundee::com::starsystem</text>
<text text-anchor="start" x="144.5" y="-139.5" font-family="Helvetica,sans-Serif" font-size="10.00">::deviceconfig::Port::GetIDOfOwning</text>
<text text-anchor="middle" x="225" y="-126.5" font-family="Helvetica,sans-Serif" font-size="10.00">Device</text>
</a>
</g>
<!-- Node96&#45;&gt;Node101 -->
<g id="edge10" class="edge"><title>Node96&#45;&gt;Node101</title>
<path fill="none" stroke="midnightblue" d="M100.148,-118.456C108.455,-120.023 117.316,-121.694 126.337,-123.395"/>
<polygon fill="midnightblue" stroke="midnightblue" points="125.695,-126.835 136.17,-125.249 126.992,-119.957 125.695,-126.835"/>
</g>
<!-- Node104 -->
<g id="node17" class="node"><title>Node104</title>
<a xlink:href="a01437.xhtml#a476b68bb47f7417a81b41f1878bd41da" target="_top" xlink:title="Get the value of the port&#39;s status control register. ">
<polygon fill="white" stroke="black" points="140,-52.5 140,-99.5 310,-99.5 310,-52.5 140,-52.5"/>
<text text-anchor="start" x="148" y="-86.5" font-family="Helvetica,sans-Serif" font-size="10.00">stardundee::com::starsystem</text>
<text text-anchor="start" x="148" y="-73.5" font-family="Helvetica,sans-Serif" font-size="10.00">::deviceconfig::Port::GetPortStatus</text>
<text text-anchor="middle" x="225" y="-60.5" font-family="Helvetica,sans-Serif" font-size="10.00">Control</text>
</a>
</g>
<!-- Node96&#45;&gt;Node104 -->
<g id="edge16" class="edge"><title>Node96&#45;&gt;Node104</title>
<path fill="none" stroke="midnightblue" d="M100.148,-99.5435C109.562,-97.7682 119.687,-95.8591 129.951,-93.9235"/>
<polygon fill="midnightblue" stroke="midnightblue" points="130.638,-97.3558 139.816,-92.0633 129.34,-90.477 130.638,-97.3558"/>
</g>
<!-- Node105 -->
<g id="node19" class="node"><title>Node105</title>
<a xlink:href="a01437.xhtml#a95251b99f03ff7d467f5f4c7810c8681" target="_top" xlink:title="Get the port type. ">
<polygon fill="white" stroke="black" points="152.5,-0 152.5,-34 297.5,-34 297.5,-0 152.5,-0"/>
<text text-anchor="start" x="160.5" y="-21" font-family="Helvetica,sans-Serif" font-size="10.00">stardundee::com::starsystem</text>
<text text-anchor="middle" x="225" y="-8" font-family="Helvetica,sans-Serif" font-size="10.00">::deviceconfig::Port::GetType</text>
</a>
</g>
<!-- Node96&#45;&gt;Node105 -->
<g id="edge18" class="edge"><title>Node96&#45;&gt;Node105</title>
<path fill="none" stroke="midnightblue" d="M61.027,-98.3286C76.5521,-83.8511 106.291,-58.0689 136,-43 139.715,-41.1159 143.588,-39.347 147.549,-37.6894"/>
<polygon fill="midnightblue" stroke="midnightblue" points="148.883,-40.9258 156.919,-34.0214 146.332,-34.4073 148.883,-40.9258"/>
</g>
<!-- Node98 -->
<g id="node5" class="node"><title>Node98</title>
<a xlink:href="a01273.xhtml#aa9df725ecbac12fb410aa677e1f31168" target="_top" xlink:title="Create an instance of a ConfigPort with the given values. ">
<polygon fill="white" stroke="black" points="380,-257.5 380,-278.5 472,-278.5 472,-257.5 380,-257.5"/>
<text text-anchor="middle" x="426" y="-265.5" font-family="Helvetica,sans-Serif" font-size="10.00">CreateConfigPort</text>
</a>
</g>
<!-- Node97&#45;&gt;Node98 -->
<g id="edge4" class="edge"><title>Node97&#45;&gt;Node98</title>
<path fill="none" stroke="midnightblue" d="M257.056,-221.453C282.274,-228.836 318.322,-239.271 350,-248 358.225,-250.266 366.966,-252.619 375.481,-254.88"/>
<polygon fill="midnightblue" stroke="midnightblue" points="374.766,-258.311 385.328,-257.482 376.554,-251.543 374.766,-258.311"/>
</g>
<!-- Node99 -->
<g id="node7" class="node"><title>Node99</title>
<a xlink:href="a01273.xhtml#a4a1cb284a54e0a6f5877f4716fbfa219" target="_top" xlink:title="Create an instance of an ExternalPort with the given values. ">
<polygon fill="white" stroke="black" points="376,-217.5 376,-238.5 476,-238.5 476,-217.5 376,-217.5"/>
<text text-anchor="middle" x="426" y="-225.5" font-family="Helvetica,sans-Serif" font-size="10.00">CreateExternalPort</text>
</a>
</g>
<!-- Node97&#45;&gt;Node99 -->
<g id="edge6" class="edge"><title>Node97&#45;&gt;Node99</title>
<path fill="none" stroke="midnightblue" d="M257.294,-214.571C286.383,-216.886 329.906,-220.351 365.459,-223.181"/>
<polygon fill="midnightblue" stroke="midnightblue" points="365.487,-226.694 375.733,-223.999 366.042,-219.716 365.487,-226.694"/>
</g>
<!-- Node100 -->
<g id="node9" class="node"><title>Node100</title>
<a xlink:href="a01273.xhtml#ac5e6675e752bc9cc4cd8e12e14c8bc57" target="_top" xlink:title="Create an instance of a LinkPort with the given values. ">
<polygon fill="white" stroke="black" points="385,-177.5 385,-198.5 467,-198.5 467,-177.5 385,-177.5"/>
<text text-anchor="middle" x="426" y="-185.5" font-family="Helvetica,sans-Serif" font-size="10.00">CreateLinkPort</text>
</a>
</g>
<!-- Node97&#45;&gt;Node100 -->
<g id="edge8" class="edge"><title>Node97&#45;&gt;Node100</title>
<path fill="none" stroke="midnightblue" d="M257.294,-208.144C288.942,-204.365 337.676,-198.546 374.643,-194.132"/>
<polygon fill="midnightblue" stroke="midnightblue" points="375.219,-197.588 384.733,-192.927 374.389,-190.638 375.219,-197.588"/>
</g>
<!-- Node102 -->
<g id="node13" class="node"><title>Node102</title>
<a xlink:href="a01437.xhtml#a1c6d6e6574ff27d5ba66a9db55ce9dbb" target="_top" xlink:title="Get information about any errors present on the Port. ">
<polygon fill="white" stroke="black" points="351.5,-125 351.5,-159 500.5,-159 500.5,-125 351.5,-125"/>
<text text-anchor="start" x="359.5" y="-146" font-family="Helvetica,sans-Serif" font-size="10.00">stardundee::com::starsystem</text>
<text text-anchor="middle" x="426" y="-133" font-family="Helvetica,sans-Serif" font-size="10.00">::deviceconfig::Port::GetErrors</text>
</a>
</g>
<!-- Node101&#45;&gt;Node102 -->
<g id="edge12" class="edge"><title>Node101&#45;&gt;Node102</title>
<path fill="none" stroke="midnightblue" d="M313.747,-142C322.839,-142 332.062,-142 341.112,-142"/>
<polygon fill="midnightblue" stroke="midnightblue" points="341.24,-145.5 351.24,-142 341.24,-138.5 341.24,-145.5"/>
</g>
<!-- Node103 -->
<g id="node15" class="node"><title>Node103</title>
<a xlink:href="a01437.xhtml#a47f013acd9123d3230bc86fb56adcb23" target="_top" xlink:title="Get the status information for the Port. ">
<polygon fill="white" stroke="black" points="350,-73 350,-107 502,-107 502,-73 350,-73"/>
<text text-anchor="start" x="358" y="-94" font-family="Helvetica,sans-Serif" font-size="10.00">stardundee::com::starsystem</text>
<text text-anchor="middle" x="426" y="-81" font-family="Helvetica,sans-Serif" font-size="10.00">::deviceconfig::Port::GetStatus</text>
</a>
</g>
<!-- Node101&#45;&gt;Node103 -->
<g id="edge14" class="edge"><title>Node101&#45;&gt;Node103</title>
<path fill="none" stroke="midnightblue" d="M313.747,-119.041C325.906,-115.895 338.299,-112.689 350.199,-109.61"/>
<polygon fill="midnightblue" stroke="midnightblue" points="351.259,-112.951 360.063,-107.058 349.505,-106.174 351.259,-112.951"/>
</g>
</g>
</svg>
