<?xml version="1.0" encoding="UTF-8" standalone="no"?>
<!DOCTYPE svg PUBLIC "-//W3C//DTD SVG 1.1//EN"
 "http://www.w3.org/Graphics/SVG/1.1/DTD/svg11.dtd">
<!-- Generated by graphviz version 2.26.0 (20091210.2329)
 -->
<!-- Title: PortErrors Pages: 1 -->
<svg width="460pt" height="368pt"
 viewBox="0.00 0.00 460.00 368.00" xmlns="http://www.w3.org/2000/svg" xmlns:xlink="http://www.w3.org/1999/xlink">
<g id="graph1" class="graph" transform="scale(1 1) rotate(0) translate(4 364)">
<title>PortErrors</title>
<polygon fill="white" stroke="white" points="-4,5 -4,-364 457,-364 457,5 -4,5"/>
<!-- Node0 -->
<g id="node1" class="node"><title>Node0</title>
<polygon fill="#bfbfbf" stroke="black" points="200,-257 200,-359 282,-359 282,-257 200,-257"/>
<text text-anchor="middle" x="241" y="-346" font-family="Helvetica,sans-Serif" font-size="10.00">PortErrors</text>
<polyline fill="none" stroke="black" points="200,-338 282,-338 "/>
<text text-anchor="middle" x="241" y="-325" font-family="Helvetica,sans-Serif" font-size="10.00"> </text>
<polyline fill="none" stroke="black" points="200,-317 282,-317 "/>
<text text-anchor="start" x="208" y="-304" font-family="Helvetica,sans-Serif" font-size="10.00">+ PortErrors()</text>
<text text-anchor="start" x="208" y="-291" font-family="Helvetica,sans-Serif" font-size="10.00">+ PortErrors()</text>
<text text-anchor="start" x="208" y="-278" font-family="Helvetica,sans-Serif" font-size="10.00">+ operator=()</text>
<text text-anchor="start" x="208" y="-265" font-family="Helvetica,sans-Serif" font-size="10.00">+ ~PortErrors()</text>
</g>
<!-- Node1 -->
<g id="node3" class="node"><title>Node1</title>
<a xlink:href="a01253.xhtml" target="_top" xlink:title="Holds information about errors that may be present on a device&#39;s configuration port. ">
<polygon fill="white" stroke="black" points="0,-13.5 0,-206.5 164,-206.5 164,-13.5 0,-13.5"/>
<text text-anchor="middle" x="82" y="-193.5" font-family="Helvetica,sans-Serif" font-size="10.00">ConfigPortErrors</text>
<polyline fill="none" stroke="black" points="0,-185.5 164,-185.5 "/>
<text text-anchor="middle" x="82" y="-172.5" font-family="Helvetica,sans-Serif" font-size="10.00"> </text>
<polyline fill="none" stroke="black" points="0,-164.5 164,-164.5 "/>
<text text-anchor="start" x="8" y="-151.5" font-family="Helvetica,sans-Serif" font-size="10.00">+ ConfigPortErrors()</text>
<text text-anchor="start" x="8" y="-138.5" font-family="Helvetica,sans-Serif" font-size="10.00">+ ConfigPortErrors()</text>
<text text-anchor="start" x="8" y="-125.5" font-family="Helvetica,sans-Serif" font-size="10.00">+ ConfigPortErrors()</text>
<text text-anchor="start" x="8" y="-112.5" font-family="Helvetica,sans-Serif" font-size="10.00">+ operator=()</text>
<text text-anchor="start" x="8" y="-99.5" font-family="Helvetica,sans-Serif" font-size="10.00">+ ~ConfigPortErrors()</text>
<text text-anchor="start" x="8" y="-86.5" font-family="Helvetica,sans-Serif" font-size="10.00">+ GetCargoTooLarge()</text>
<text text-anchor="start" x="8" y="-73.5" font-family="Helvetica,sans-Serif" font-size="10.00">+ GetCommandNotImplemented()</text>
<text text-anchor="start" x="8" y="-60.5" font-family="Helvetica,sans-Serif" font-size="10.00">+ GetEarlyEEP()</text>
<text text-anchor="start" x="8" y="-47.5" font-family="Helvetica,sans-Serif" font-size="10.00">+ GetEarlyEOP()</text>
<text text-anchor="start" x="8" y="-34.5" font-family="Helvetica,sans-Serif" font-size="10.00">+ GetErrorCount()</text>
<text text-anchor="start" x="8" y="-21.5" font-family="Helvetica,sans-Serif" font-size="10.00">and 15 more...</text>
</a>
</g>
<!-- Node0&#45;&gt;Node1 -->
<g id="edge2" class="edge"><title>Node0&#45;&gt;Node1</title>
<path fill="none" stroke="midnightblue" d="M193.354,-248.668C182.724,-235.43 171.184,-221.06 159.694,-206.751"/>
<polygon fill="none" stroke="midnightblue" points="190.856,-251.147 199.847,-256.753 196.314,-246.764 190.856,-251.147"/>
</g>
<!-- Node2 -->
<g id="node5" class="node"><title>Node2</title>
<a xlink:href="a01321.xhtml" target="_top" xlink:title="Holds information about errors which may be present on one of the external ports on a device...">
<polygon fill="white" stroke="black" points="182,-33 182,-187 300,-187 300,-33 182,-33"/>
<text text-anchor="middle" x="241" y="-174" font-family="Helvetica,sans-Serif" font-size="10.00">ExternalPortErrors</text>
<polyline fill="none" stroke="black" points="182,-166 300,-166 "/>
<text text-anchor="middle" x="241" y="-153" font-family="Helvetica,sans-Serif" font-size="10.00"> </text>
<polyline fill="none" stroke="black" points="182,-145 300,-145 "/>
<text text-anchor="start" x="190" y="-132" font-family="Helvetica,sans-Serif" font-size="10.00">+ ExternalPortErrors()</text>
<text text-anchor="start" x="190" y="-119" font-family="Helvetica,sans-Serif" font-size="10.00">+ ExternalPortErrors()</text>
<text text-anchor="start" x="190" y="-106" font-family="Helvetica,sans-Serif" font-size="10.00">+ ExternalPortErrors()</text>
<text text-anchor="start" x="190" y="-93" font-family="Helvetica,sans-Serif" font-size="10.00">+ operator=()</text>
<text text-anchor="start" x="190" y="-80" font-family="Helvetica,sans-Serif" font-size="10.00">+ ~ExternalPortErrors()</text>
<text text-anchor="start" x="190" y="-67" font-family="Helvetica,sans-Serif" font-size="10.00">+ GetErrorCount()</text>
<text text-anchor="start" x="190" y="-54" font-family="Helvetica,sans-Serif" font-size="10.00">+ GetPacketAddress()</text>
<text text-anchor="start" x="190" y="-41" font-family="Helvetica,sans-Serif" font-size="10.00">+ GetPortTimeout()</text>
</a>
</g>
<!-- Node0&#45;&gt;Node2 -->
<g id="edge4" class="edge"><title>Node0&#45;&gt;Node2</title>
<path fill="none" stroke="midnightblue" d="M241,-246.556C241,-227.772 241,-206.87 241,-187.179"/>
<polygon fill="none" stroke="midnightblue" points="237.5,-246.753 241,-256.753 244.5,-246.753 237.5,-246.753"/>
</g>
<!-- Node3 -->
<g id="node7" class="node"><title>Node3</title>
<a xlink:href="a01349.xhtml" target="_top" xlink:title="Holds information about errors which may be present on one of the link ports on a device...">
<polygon fill="white" stroke="black" points="318,-0.5 318,-219.5 452,-219.5 452,-0.5 318,-0.5"/>
<text text-anchor="middle" x="385" y="-206.5" font-family="Helvetica,sans-Serif" font-size="10.00">LinkPortErrors</text>
<polyline fill="none" stroke="black" points="318,-198.5 452,-198.5 "/>
<text text-anchor="middle" x="385" y="-185.5" font-family="Helvetica,sans-Serif" font-size="10.00"> </text>
<polyline fill="none" stroke="black" points="318,-177.5 452,-177.5 "/>
<text text-anchor="start" x="326" y="-164.5" font-family="Helvetica,sans-Serif" font-size="10.00">+ LinkPortErrors()</text>
<text text-anchor="start" x="326" y="-151.5" font-family="Helvetica,sans-Serif" font-size="10.00">+ LinkPortErrors()</text>
<text text-anchor="start" x="326" y="-138.5" font-family="Helvetica,sans-Serif" font-size="10.00">+ LinkPortErrors()</text>
<text text-anchor="start" x="326" y="-125.5" font-family="Helvetica,sans-Serif" font-size="10.00">+ operator=()</text>
<text text-anchor="start" x="326" y="-112.5" font-family="Helvetica,sans-Serif" font-size="10.00">+ ~LinkPortErrors()</text>
<text text-anchor="start" x="326" y="-99.5" font-family="Helvetica,sans-Serif" font-size="10.00">+ GetCharacterSequence()</text>
<text text-anchor="start" x="326" y="-86.5" font-family="Helvetica,sans-Serif" font-size="10.00">+ GetCredit()</text>
<text text-anchor="start" x="326" y="-73.5" font-family="Helvetica,sans-Serif" font-size="10.00">+ GetDisconnect()</text>
<text text-anchor="start" x="326" y="-60.5" font-family="Helvetica,sans-Serif" font-size="10.00">+ GetErrorCount()</text>
<text text-anchor="start" x="326" y="-47.5" font-family="Helvetica,sans-Serif" font-size="10.00">+ GetEscape()</text>
<text text-anchor="start" x="326" y="-34.5" font-family="Helvetica,sans-Serif" font-size="10.00">+ GetPacketAddress()</text>
<text text-anchor="start" x="326" y="-21.5" font-family="Helvetica,sans-Serif" font-size="10.00">+ GetParity()</text>
<text text-anchor="start" x="326" y="-8.5" font-family="Helvetica,sans-Serif" font-size="10.00">+ GetPortTimeout()</text>
</a>
</g>
<!-- Node0&#45;&gt;Node3 -->
<g id="edge6" class="edge"><title>Node0&#45;&gt;Node3</title>
<path fill="none" stroke="midnightblue" d="M287.466,-248.757C294.758,-239.205 302.146,-229.376 309,-220 311.945,-215.971 314.932,-211.843 317.932,-207.661"/>
<polygon fill="none" stroke="midnightblue" points="284.684,-246.633 281.377,-256.698 290.239,-250.892 284.684,-246.633"/>
</g>
</g>
</svg>
