<?xml version="1.0" encoding="UTF-8" standalone="no"?>
<!DOCTYPE svg PUBLIC "-//W3C//DTD SVG 1.1//EN"
 "http://www.w3.org/Graphics/SVG/1.1/DTD/svg11.dtd">
<!-- Generated by graphviz version 2.26.0 (20091210.2329)
 -->
<!-- Title: operator= Pages: 1 -->
<svg width="270pt" height="1282pt"
 viewBox="0.00 0.00 270.00 1282.00" xmlns="http://www.w3.org/2000/svg" xmlns:xlink="http://www.w3.org/1999/xlink">
<g id="graph1" class="graph" transform="scale(1 1) rotate(0) translate(4 1278)">
<title>operator=</title>
<polygon fill="white" stroke="white" points="-4,5 -4,-1278 267,-1278 267,5 -4,5"/>
<!-- Node92 -->
<g id="node1" class="node"><title>Node92</title>
<polygon fill="#bfbfbf" stroke="black" points="0,-632.5 0,-653.5 58,-653.5 58,-632.5 0,-632.5"/>
<text text-anchor="middle" x="29" y="-640.5" font-family="Helvetica,sans-Serif" font-size="10.00">operator=</text>
</g>
<!-- Node93 -->
<g id="node3" class="node"><title>Node93</title>
<a xlink:href="a01725.xhtml#a452011519a035db4c36a660e555d6dbc" target="_top" xlink:title="Disables auto reload for a specific counter. ">
<polygon fill="white" stroke="black" points="110.5,-1252.5 110.5,-1273.5 245.5,-1273.5 245.5,-1252.5 110.5,-1252.5"/>
<text text-anchor="middle" x="178" y="-1260.5" font-family="Helvetica,sans-Serif" font-size="10.00">DisableCounterAutoReload</text>
</a>
</g>
<!-- Node92&#45;&gt;Node93 -->
<g id="edge2" class="edge"><title>Node92&#45;&gt;Node93</title>
<path fill="none" stroke="midnightblue" d="M29.4187,-653.518C32.5487,-729.824 53.2962,-1196.82 94,-1243 96.2799,-1245.59 98.8282,-1247.87 101.578,-1249.88"/>
<polygon fill="midnightblue" stroke="midnightblue" points="99.9898,-1253.01 110.367,-1255.15 103.587,-1247.01 99.9898,-1253.01"/>
</g>
<!-- Node94 -->
<g id="node5" class="node"><title>Node94</title>
<a xlink:href="a01725.xhtml#a528f1385c3a64ad0c00f5ff72a740d58" target="_top" xlink:title="Disables load zero for a specific counter. ">
<polygon fill="white" stroke="black" points="115.5,-1212.5 115.5,-1233.5 240.5,-1233.5 240.5,-1212.5 115.5,-1212.5"/>
<text text-anchor="middle" x="178" y="-1220.5" font-family="Helvetica,sans-Serif" font-size="10.00">DisableCounterLoadZero</text>
</a>
</g>
<!-- Node92&#45;&gt;Node94 -->
<g id="edge4" class="edge"><title>Node92&#45;&gt;Node94</title>
<path fill="none" stroke="midnightblue" d="M29.5151,-653.748C33.1563,-727.757 55.9751,-1160.19 94,-1203 97.5187,-1206.96 101.667,-1210.21 106.204,-1212.87"/>
<polygon fill="midnightblue" stroke="midnightblue" points="104.817,-1216.08 115.344,-1217.28 107.861,-1209.78 104.817,-1216.08"/>
</g>
<!-- Node95 -->
<g id="node7" class="node"><title>Node95</title>
<a xlink:href="a01725.xhtml#a49873f6e1a0d05ec3b2540ac222d14f9" target="_top" xlink:title="Disables start mode for a specific counter. ">
<polygon fill="white" stroke="black" points="113.5,-1172.5 113.5,-1193.5 242.5,-1193.5 242.5,-1172.5 113.5,-1172.5"/>
<text text-anchor="middle" x="178" y="-1180.5" font-family="Helvetica,sans-Serif" font-size="10.00">DisableCounterStartMode</text>
</a>
</g>
<!-- Node92&#45;&gt;Node95 -->
<g id="edge6" class="edge"><title>Node92&#45;&gt;Node95</title>
<path fill="none" stroke="midnightblue" d="M29.6233,-653.882C33.7996,-725.148 58.6307,-1123.53 94,-1163 97.0656,-1166.42 100.601,-1169.31 104.449,-1171.74"/>
<polygon fill="midnightblue" stroke="midnightblue" points="102.83,-1174.85 113.313,-1176.38 106.073,-1168.64 102.83,-1174.85"/>
</g>
<!-- Node96 -->
<g id="node9" class="node"><title>Node96</title>
<a xlink:href="a01725.xhtml#aab3e44b31202b30b485c5bed1ed5709c" target="_top" xlink:title="Disables start stop mode for a specific counter. ">
<polygon fill="white" stroke="black" points="103.5,-1132.5 103.5,-1153.5 252.5,-1153.5 252.5,-1132.5 103.5,-1132.5"/>
<text text-anchor="middle" x="178" y="-1140.5" font-family="Helvetica,sans-Serif" font-size="10.00">DisableCounterStartStopMode</text>
</a>
</g>
<!-- Node92&#45;&gt;Node96 -->
<g id="edge8" class="edge"><title>Node92&#45;&gt;Node96</title>
<path fill="none" stroke="midnightblue" d="M29.7436,-653.912C34.4779,-722.002 61.2626,-1086.84 94,-1123 95.0691,-1124.18 96.1941,-1125.3 97.3686,-1126.35"/>
<polygon fill="midnightblue" stroke="midnightblue" points="95.6293,-1129.42 105.77,-1132.49 99.7571,-1123.76 95.6293,-1129.42"/>
</g>
<!-- Node97 -->
<g id="node11" class="node"><title>Node97</title>
<a xlink:href="a01725.xhtml#a2b8cc9ce69236ccd61b63b7ec2d4b220" target="_top" xlink:title="Disables trigger count for a specific counter. ">
<polygon fill="white" stroke="black" points="108,-1092.5 108,-1113.5 248,-1113.5 248,-1092.5 108,-1092.5"/>
<text text-anchor="middle" x="178" y="-1100.5" font-family="Helvetica,sans-Serif" font-size="10.00">DisableCounterTriggerCount</text>
</a>
</g>
<!-- Node92&#45;&gt;Node97 -->
<g id="edge10" class="edge"><title>Node92&#45;&gt;Node97</title>
<path fill="none" stroke="midnightblue" d="M29.8766,-653.828C35.1907,-718.32 63.8701,-1050.13 94,-1083 95.6048,-1084.75 97.3327,-1086.36 99.1623,-1087.84"/>
<polygon fill="midnightblue" stroke="midnightblue" points="97.4992,-1090.94 107.77,-1093.54 101.364,-1085.1 97.4992,-1090.94"/>
</g>
<!-- Node98 -->
<g id="node13" class="node"><title>Node98</title>
<a xlink:href="a01725.xhtml#a4f7062133dc91da2b1a0b86ca89d10bd" target="_top" xlink:title="Disables packet transmit mode for a specific port. ">
<polygon fill="white" stroke="black" points="97.5,-1052.5 97.5,-1073.5 258.5,-1073.5 258.5,-1052.5 97.5,-1052.5"/>
<text text-anchor="middle" x="178" y="-1060.5" font-family="Helvetica,sans-Serif" font-size="10.00">DisablePortTransmitPacketMode</text>
</a>
</g>
<!-- Node92&#45;&gt;Node98 -->
<g id="edge12" class="edge"><title>Node92&#45;&gt;Node98</title>
<path fill="none" stroke="midnightblue" d="M29.1942,-653.818C30.455,-711.675 39.2638,-984.135 94,-1043 95.0846,-1044.17 96.2239,-1045.27 97.4115,-1046.32"/>
<polygon fill="midnightblue" stroke="midnightblue" points="95.7147,-1049.41 105.882,-1052.39 99.7923,-1043.72 95.7147,-1049.41"/>
</g>
<!-- Node99 -->
<g id="node15" class="node"><title>Node99</title>
<a xlink:href="a01725.xhtml#a1524764d9f27e1d04e1e61ecf000b940" target="_top" xlink:title="Disables a specific internal trigger. ">
<polygon fill="white" stroke="black" points="138,-1012.5 138,-1033.5 218,-1033.5 218,-1012.5 138,-1012.5"/>
<text text-anchor="middle" x="178" y="-1020.5" font-family="Helvetica,sans-Serif" font-size="10.00">DisableTrigger</text>
</a>
</g>
<!-- Node92&#45;&gt;Node99 -->
<g id="edge14" class="edge"><title>Node92&#45;&gt;Node99</title>
<path fill="none" stroke="midnightblue" d="M29.4059,-653.797C31.6668,-708.081 44.4523,-950.644 94,-1003 102.862,-1012.36 115.251,-1017.69 127.797,-1020.64"/>
<polygon fill="midnightblue" stroke="midnightblue" points="127.353,-1024.12 137.827,-1022.53 128.646,-1017.24 127.353,-1024.12"/>
</g>
<!-- Node100 -->
<g id="node17" class="node"><title>Node100</title>
<a xlink:href="a01725.xhtml#a9bbee1975c25e5cb4f9ee4a9925938ba" target="_top" xlink:title="Enables auto reload for a specific counter. ">
<polygon fill="white" stroke="black" points="112,-972.5 112,-993.5 244,-993.5 244,-972.5 112,-972.5"/>
<text text-anchor="middle" x="178" y="-980.5" font-family="Helvetica,sans-Serif" font-size="10.00">EnableCounterAutoReload</text>
</a>
</g>
<!-- Node92&#45;&gt;Node100 -->
<g id="edge16" class="edge"><title>Node92&#45;&gt;Node100</title>
<path fill="none" stroke="midnightblue" d="M29.6558,-653.588C32.9771,-703.76 49.5629,-917.056 94,-963 96.6576,-965.748 99.6192,-968.147 102.798,-970.239"/>
<polygon fill="midnightblue" stroke="midnightblue" points="101.207,-973.358 111.659,-975.089 104.568,-967.217 101.207,-973.358"/>
</g>
<!-- Node101 -->
<g id="node19" class="node"><title>Node101</title>
<a xlink:href="a01725.xhtml#a738773b8da8616a0514f5992c25eb293" target="_top" xlink:title="Enables load zero for a specific counter. ">
<polygon fill="white" stroke="black" points="117,-932.5 117,-953.5 239,-953.5 239,-932.5 117,-932.5"/>
<text text-anchor="middle" x="178" y="-940.5" font-family="Helvetica,sans-Serif" font-size="10.00">EnableCounterLoadZero</text>
</a>
</g>
<!-- Node92&#45;&gt;Node101 -->
<g id="edge18" class="edge"><title>Node92&#45;&gt;Node101</title>
<path fill="none" stroke="midnightblue" d="M30.006,-653.792C34.5627,-700.363 54.7658,-883.544 94,-923 97.9639,-926.986 102.569,-930.234 107.542,-932.874"/>
<polygon fill="midnightblue" stroke="midnightblue" points="106.273,-936.139 116.833,-936.997 109.112,-929.741 106.273,-936.139"/>
</g>
<!-- Node102 -->
<g id="node21" class="node"><title>Node102</title>
<a xlink:href="a01725.xhtml#a30865cbb8b96e5fd4be8a5b6ef9be991" target="_top" xlink:title="Enables start mode for a specific counter. ">
<polygon fill="white" stroke="black" points="115,-892.5 115,-913.5 241,-913.5 241,-892.5 115,-892.5"/>
<text text-anchor="middle" x="178" y="-900.5" font-family="Helvetica,sans-Serif" font-size="10.00">EnableCounterStartMode</text>
</a>
</g>
<!-- Node92&#45;&gt;Node102 -->
<g id="edge20" class="edge"><title>Node92&#45;&gt;Node102</title>
<path fill="none" stroke="midnightblue" d="M30.4321,-653.654C36.3016,-695.758 59.8337,-849.868 94,-883 97.5144,-886.408 101.499,-889.272 105.777,-891.675"/>
<polygon fill="midnightblue" stroke="midnightblue" points="104.375,-894.884 114.913,-895.988 107.364,-888.554 104.375,-894.884"/>
</g>
<!-- Node103 -->
<g id="node23" class="node"><title>Node103</title>
<a xlink:href="a01725.xhtml#aa47f857304a818aaca8b0a60b6e177b9" target="_top" xlink:title="Enables start stop mode for a specific counter. ">
<polygon fill="white" stroke="black" points="105,-852.5 105,-873.5 251,-873.5 251,-852.5 105,-852.5"/>
<text text-anchor="middle" x="178" y="-860.5" font-family="Helvetica,sans-Serif" font-size="10.00">EnableCounterStartStopMode</text>
</a>
</g>
<!-- Node92&#45;&gt;Node103 -->
<g id="edge22" class="edge"><title>Node92&#45;&gt;Node103</title>
<path fill="none" stroke="midnightblue" d="M31.0389,-653.641C38.4251,-691.112 64.8849,-816.139 94,-843 95.5288,-844.41 97.1386,-845.727 98.8161,-846.955"/>
<polygon fill="midnightblue" stroke="midnightblue" points="97.3496,-850.161 107.707,-852.39 101.001,-844.188 97.3496,-850.161"/>
</g>
<!-- Node104 -->
<g id="node25" class="node"><title>Node104</title>
<a xlink:href="a01725.xhtml#a556a9203bc87075d6a3888bc398da841" target="_top" xlink:title="Enables trigger count for a specific counter. ">
<polygon fill="white" stroke="black" points="109.5,-812.5 109.5,-833.5 246.5,-833.5 246.5,-812.5 109.5,-812.5"/>
<text text-anchor="middle" x="178" y="-820.5" font-family="Helvetica,sans-Serif" font-size="10.00">EnableCounterTriggerCount</text>
</a>
</g>
<!-- Node92&#45;&gt;Node104 -->
<g id="edge24" class="edge"><title>Node92&#45;&gt;Node104</title>
<path fill="none" stroke="midnightblue" d="M30.0564,-653.899C33.4733,-682.914 46.9061,-762.576 94,-803 95.9907,-804.709 98.1017,-806.277 100.307,-807.717"/>
<polygon fill="midnightblue" stroke="midnightblue" points="98.7848,-810.874 109.229,-812.654 102.174,-804.75 98.7848,-810.874"/>
</g>
<!-- Node105 -->
<g id="node27" class="node"><title>Node105</title>
<a xlink:href="a01725.xhtml#a4f9f273746a85cab123577bd0ad9b9b1" target="_top" xlink:title="Enables packet transmit mode for a specific port. ">
<polygon fill="white" stroke="black" points="99,-772.5 99,-793.5 257,-793.5 257,-772.5 99,-772.5"/>
<text text-anchor="middle" x="178" y="-780.5" font-family="Helvetica,sans-Serif" font-size="10.00">EnablePortTransmitPacketMode</text>
</a>
</g>
<!-- Node92&#45;&gt;Node105 -->
<g id="edge26" class="edge"><title>Node92&#45;&gt;Node105</title>
<path fill="none" stroke="midnightblue" d="M31.5716,-653.576C37.8741,-677.144 56.393,-734.169 94,-763 96.3423,-764.796 98.8211,-766.433 101.402,-767.927"/>
<polygon fill="midnightblue" stroke="midnightblue" points="100.005,-771.141 110.516,-772.469 103.127,-764.876 100.005,-771.141"/>
</g>
<!-- Node106 -->
<g id="node29" class="node"><title>Node106</title>
<a xlink:href="a01725.xhtml#a934ca66ae9b624e06d36ee14a96e8d55" target="_top" xlink:title="Enables a specific internal trigger. ">
<polygon fill="white" stroke="black" points="139.5,-732.5 139.5,-753.5 216.5,-753.5 216.5,-732.5 139.5,-732.5"/>
<text text-anchor="middle" x="178" y="-740.5" font-family="Helvetica,sans-Serif" font-size="10.00">EnableTrigger</text>
</a>
</g>
<!-- Node92&#45;&gt;Node106 -->
<g id="edge28" class="edge"><title>Node92&#45;&gt;Node106</title>
<path fill="none" stroke="midnightblue" d="M34.6007,-653.7C44.2751,-671.082 65.8184,-705.288 94,-723 104.511,-729.606 117.012,-734.031 129.115,-736.995"/>
<polygon fill="midnightblue" stroke="midnightblue" points="128.622,-740.469 139.136,-739.156 130.098,-733.626 128.622,-740.469"/>
</g>
<!-- Node107 -->
<g id="node31" class="node"><title>Node107</title>
<a xlink:href="a01725.xhtml#a05a2afd026396c9491c01aa863d8a008" target="_top" xlink:title="Force the reload of a specific counter. ">
<polygon fill="white" stroke="black" points="124.5,-692.5 124.5,-713.5 231.5,-713.5 231.5,-692.5 124.5,-692.5"/>
<text text-anchor="middle" x="178" y="-700.5" font-family="Helvetica,sans-Serif" font-size="10.00">ForceCounterReload</text>
</a>
</g>
<!-- Node92&#45;&gt;Node107 -->
<g id="edge30" class="edge"><title>Node92&#45;&gt;Node107</title>
<path fill="none" stroke="midnightblue" d="M43.2537,-653.625C55.9665,-662.636 75.3927,-675.293 94,-683 100.57,-685.721 107.589,-688.121 114.666,-690.225"/>
<polygon fill="midnightblue" stroke="midnightblue" points="113.743,-693.6 124.315,-692.912 115.621,-686.857 113.743,-693.6"/>
</g>
<!-- Node108 -->
<g id="node33" class="node"><title>Node108</title>
<a xlink:href="a01725.xhtml#a0bab76bfa5d9ba77805f7f4ff19d4971" target="_top" xlink:title="Force the triggering of a specific internal trigger. ">
<polygon fill="white" stroke="black" points="142.5,-652.5 142.5,-673.5 213.5,-673.5 213.5,-652.5 142.5,-652.5"/>
<text text-anchor="middle" x="178" y="-660.5" font-family="Helvetica,sans-Serif" font-size="10.00">ForceTrigger</text>
</a>
</g>
<!-- Node92&#45;&gt;Node108 -->
<g id="edge32" class="edge"><title>Node92&#45;&gt;Node108</title>
<path fill="none" stroke="midnightblue" d="M58.0824,-646.904C79.2022,-649.739 108.197,-653.63 132.385,-656.877"/>
<polygon fill="midnightblue" stroke="midnightblue" points="132.043,-660.363 142.42,-658.224 132.974,-653.425 132.043,-660.363"/>
</g>
<!-- Node109 -->
<g id="node35" class="node"><title>Node109</title>
<a xlink:href="a01725.xhtml#ab36698ac7a76b139fb0f714fccb7b148" target="_top" xlink:title="Gets whether auto reload is enabled for a specific counter. ">
<polygon fill="white" stroke="black" points="101.5,-612.5 101.5,-633.5 254.5,-633.5 254.5,-612.5 101.5,-612.5"/>
<text text-anchor="middle" x="178" y="-620.5" font-family="Helvetica,sans-Serif" font-size="10.00">GetCounterAutoReloadEnabled</text>
</a>
</g>
<!-- Node92&#45;&gt;Node109 -->
<g id="edge34" class="edge"><title>Node92&#45;&gt;Node109</title>
<path fill="none" stroke="midnightblue" d="M58.0824,-639.096C67.8748,-637.782 79.3601,-636.24 91.2742,-634.641"/>
<polygon fill="midnightblue" stroke="midnightblue" points="91.9097,-638.087 101.355,-633.288 90.9784,-631.149 91.9097,-638.087"/>
</g>
<!-- Node110 -->
<g id="node37" class="node"><title>Node110</title>
<a xlink:href="a01725.xhtml#a8141c6c683994bb1219c58e7809fed78" target="_top" xlink:title="Gets whether load zero is enabled for a specific counter. ">
<polygon fill="white" stroke="black" points="106.5,-572.5 106.5,-593.5 249.5,-593.5 249.5,-572.5 106.5,-572.5"/>
<text text-anchor="middle" x="178" y="-580.5" font-family="Helvetica,sans-Serif" font-size="10.00">GetCounterLoadZeroEnabled</text>
</a>
</g>
<!-- Node92&#45;&gt;Node110 -->
<g id="edge36" class="edge"><title>Node92&#45;&gt;Node110</title>
<path fill="none" stroke="midnightblue" d="M43.2537,-632.375C55.9665,-623.364 75.3927,-610.707 94,-603 99.9078,-600.553 106.179,-598.366 112.529,-596.421"/>
<polygon fill="midnightblue" stroke="midnightblue" points="113.878,-599.675 122.53,-593.559 111.953,-592.945 113.878,-599.675"/>
</g>
<!-- Node111 -->
<g id="node39" class="node"><title>Node111</title>
<a xlink:href="a01725.xhtml#af12f9c1db1890d1114343245cba9416f" target="_top" xlink:title="Gets the reload value for a specific counter. ">
<polygon fill="white" stroke="black" points="117,-532.5 117,-553.5 239,-553.5 239,-532.5 117,-532.5"/>
<text text-anchor="middle" x="178" y="-540.5" font-family="Helvetica,sans-Serif" font-size="10.00">GetCounterReloadValue</text>
</a>
</g>
<!-- Node92&#45;&gt;Node111 -->
<g id="edge38" class="edge"><title>Node92&#45;&gt;Node111</title>
<path fill="none" stroke="midnightblue" d="M34.6007,-632.3C44.2751,-614.918 65.8184,-580.712 94,-563 98.1448,-560.395 102.599,-558.129 107.216,-556.158"/>
<polygon fill="midnightblue" stroke="midnightblue" points="108.756,-559.318 116.876,-552.513 106.284,-552.769 108.756,-559.318"/>
</g>
<!-- Node112 -->
<g id="node41" class="node"><title>Node112</title>
<a xlink:href="a01725.xhtml#a129915483d7fadd80d1cdeb671dde698" target="_top" xlink:title="Gets whether start mode is enabled for a specific counter. ">
<polygon fill="white" stroke="black" points="104.5,-492.5 104.5,-513.5 251.5,-513.5 251.5,-492.5 104.5,-492.5"/>
<text text-anchor="middle" x="178" y="-500.5" font-family="Helvetica,sans-Serif" font-size="10.00">GetCounterStartModeEnabled</text>
</a>
</g>
<!-- Node92&#45;&gt;Node112 -->
<g id="edge40" class="edge"><title>Node92&#45;&gt;Node112</title>
<path fill="none" stroke="midnightblue" d="M31.5716,-632.424C37.8741,-608.856 56.393,-551.831 94,-523 96.3423,-521.204 98.8211,-519.567 101.402,-518.073"/>
<polygon fill="midnightblue" stroke="midnightblue" points="103.127,-521.124 110.516,-513.531 100.005,-514.859 103.127,-521.124"/>
</g>
<!-- Node113 -->
<g id="node43" class="node"><title>Node113</title>
<a xlink:href="a01725.xhtml#a54c9aa244842b81342238048197353d7" target="_top" xlink:title="Gets whether start stop mode is enabled for a specific counter. ">
<polygon fill="white" stroke="black" points="94.5,-452.5 94.5,-473.5 261.5,-473.5 261.5,-452.5 94.5,-452.5"/>
<text text-anchor="middle" x="178" y="-460.5" font-family="Helvetica,sans-Serif" font-size="10.00">GetCounterStartStopModeEnabled</text>
</a>
</g>
<!-- Node92&#45;&gt;Node113 -->
<g id="edge42" class="edge"><title>Node92&#45;&gt;Node113</title>
<path fill="none" stroke="midnightblue" d="M30.0564,-632.101C33.4733,-603.086 46.9061,-523.424 94,-483 95.8023,-481.453 97.7032,-480.021 99.6836,-478.695"/>
<polygon fill="midnightblue" stroke="midnightblue" points="101.829,-481.504 108.817,-473.541 98.3883,-475.408 101.829,-481.504"/>
</g>
<!-- Node114 -->
<g id="node45" class="node"><title>Node114</title>
<a xlink:href="a01725.xhtml#a1a1bc3748808b06a042e5ae70d69c3dc" target="_top" xlink:title="Gets whether trigger count is enabled for a specific counter. ">
<polygon fill="white" stroke="black" points="99,-412.5 99,-433.5 257,-433.5 257,-412.5 99,-412.5"/>
<text text-anchor="middle" x="178" y="-420.5" font-family="Helvetica,sans-Serif" font-size="10.00">GetCounterTriggerCountEnabled</text>
</a>
</g>
<!-- Node92&#45;&gt;Node114 -->
<g id="edge44" class="edge"><title>Node92&#45;&gt;Node114</title>
<path fill="none" stroke="midnightblue" d="M31.0389,-632.359C38.4251,-594.888 64.8849,-469.861 94,-443 95.5288,-441.59 97.1386,-440.273 98.8161,-439.045"/>
<polygon fill="midnightblue" stroke="midnightblue" points="101.001,-441.812 107.707,-433.61 97.3496,-435.839 101.001,-441.812"/>
</g>
<!-- Node115 -->
<g id="node47" class="node"><title>Node115</title>
<a xlink:href="a01725.xhtml#a11fe427f88da2e0490f9b6ed98d0ee44" target="_top" xlink:title="Gets the counter value for a specific counter. ">
<polygon fill="white" stroke="black" points="132,-372.5 132,-393.5 224,-393.5 224,-372.5 132,-372.5"/>
<text text-anchor="middle" x="178" y="-380.5" font-family="Helvetica,sans-Serif" font-size="10.00">GetCounterValue</text>
</a>
</g>
<!-- Node92&#45;&gt;Node115 -->
<g id="edge46" class="edge"><title>Node92&#45;&gt;Node115</title>
<path fill="none" stroke="midnightblue" d="M30.4321,-632.346C36.3016,-590.242 59.8337,-436.132 94,-403 101.666,-395.566 111.57,-390.721 121.873,-387.599"/>
<polygon fill="midnightblue" stroke="midnightblue" points="122.964,-390.933 131.812,-385.106 121.261,-384.144 122.964,-390.933"/>
</g>
<!-- Node116 -->
<g id="node49" class="node"><title>Node116</title>
<a xlink:href="a01725.xhtml#a413b895bcdf5dccbd289c3342c9ea75a" target="_top" xlink:title="Gets whether packet transmit mode is enabled for a specific port. ">
<polygon fill="white" stroke="black" points="106.5,-320 106.5,-354 249.5,-354 249.5,-320 106.5,-320"/>
<text text-anchor="start" x="114.5" y="-341" font-family="Helvetica,sans-Serif" font-size="10.00">GetPortTransmitPacketMode</text>
<text text-anchor="middle" x="178" y="-328" font-family="Helvetica,sans-Serif" font-size="10.00">Enabled</text>
</a>
</g>
<!-- Node92&#45;&gt;Node116 -->
<g id="edge48" class="edge"><title>Node92&#45;&gt;Node116</title>
<path fill="none" stroke="midnightblue" d="M30.0724,-632.272C34.906,-585.968 56.0977,-403.737 94,-363 95.3648,-361.533 96.8105,-360.148 98.3252,-358.841"/>
<polygon fill="midnightblue" stroke="midnightblue" points="100.408,-361.654 106.418,-352.929 96.2787,-356.001 100.408,-361.654"/>
</g>
<!-- Node117 -->
<g id="node51" class="node"><title>Node117</title>
<a xlink:href="a01725.xhtml#adf513de80dfdc7a20724c530f2f18a50" target="_top" xlink:title="Gets the AND/OR mask for a trigger type for a specific internal trigger. ">
<polygon fill="white" stroke="black" points="126,-280.5 126,-301.5 230,-301.5 230,-280.5 126,-280.5"/>
<text text-anchor="middle" x="178" y="-288.5" font-family="Helvetica,sans-Serif" font-size="10.00">GetTriggerAndMask</text>
</a>
</g>
<!-- Node92&#45;&gt;Node117 -->
<g id="edge50" class="edge"><title>Node92&#45;&gt;Node117</title>
<path fill="none" stroke="midnightblue" d="M29.5747,-632.363C32.5671,-580.966 48.028,-358.868 94,-311 100.111,-304.637 107.852,-300.142 116.15,-296.994"/>
<polygon fill="midnightblue" stroke="midnightblue" points="117.214,-300.328 125.698,-293.983 115.109,-293.652 117.214,-300.328"/>
</g>
<!-- Node118 -->
<g id="node53" class="node"><title>Node118</title>
<a xlink:href="a01725.xhtml#acf6f8c0248c67d7f3844e7c76ca43108" target="_top" xlink:title="Gets whether a trigger is enabled. ">
<polygon fill="white" stroke="black" points="129,-240.5 129,-261.5 227,-261.5 227,-240.5 129,-240.5"/>
<text text-anchor="middle" x="178" y="-248.5" font-family="Helvetica,sans-Serif" font-size="10.00">GetTriggerEnabled</text>
</a>
</g>
<!-- Node92&#45;&gt;Node118 -->
<g id="edge52" class="edge"><title>Node92&#45;&gt;Node118</title>
<path fill="none" stroke="midnightblue" d="M29.3372,-632.214C31.2876,-576.875 42.8925,-325.311 94,-271 100.71,-263.87 109.463,-259.076 118.781,-255.89"/>
<polygon fill="midnightblue" stroke="midnightblue" points="119.953,-259.197 128.634,-253.122 118.06,-252.458 119.953,-259.197"/>
</g>
<!-- Node119 -->
<g id="node55" class="node"><title>Node119</title>
<a xlink:href="a01725.xhtml#a0d66f7ae39bc29c958656f3acf61d3b3" target="_top" xlink:title="Gets the input mode for a specific internal trigger. ">
<polygon fill="white" stroke="black" points="124,-200.5 124,-221.5 232,-221.5 232,-200.5 124,-200.5"/>
<text text-anchor="middle" x="178" y="-208.5" font-family="Helvetica,sans-Serif" font-size="10.00">GetTriggerInputMode</text>
</a>
</g>
<!-- Node92&#45;&gt;Node119 -->
<g id="edge54" class="edge"><title>Node92&#45;&gt;Node119</title>
<path fill="none" stroke="midnightblue" d="M29.1372,-632.248C30.108,-573.512 37.6803,-291.849 94,-231 99.5743,-224.977 106.606,-220.616 114.216,-217.481"/>
<polygon fill="midnightblue" stroke="midnightblue" points="115.393,-220.777 123.727,-214.235 113.133,-214.152 115.393,-220.777"/>
</g>
<!-- Node120 -->
<g id="node57" class="node"><title>Node120</title>
<a xlink:href="a01725.xhtml#a6e074d99bc766c7b6f7ca8918b5336ec" target="_top" xlink:title="Gets the invert mask for a trigger type for a specific internal trigger. ">
<polygon fill="white" stroke="black" points="122.5,-160.5 122.5,-181.5 233.5,-181.5 233.5,-160.5 122.5,-160.5"/>
<text text-anchor="middle" x="178" y="-168.5" font-family="Helvetica,sans-Serif" font-size="10.00">GetTriggerInvertMask</text>
</a>
</g>
<!-- Node92&#45;&gt;Node120 -->
<g id="edge56" class="edge"><title>Node92&#45;&gt;Node120</title>
<path fill="none" stroke="midnightblue" d="M29.822,-632.304C34.9247,-567.11 63.0637,-224.885 94,-191 99.1422,-185.368 105.558,-181.184 112.538,-178.096"/>
<polygon fill="midnightblue" stroke="midnightblue" points="114.139,-181.238 122.34,-174.53 111.746,-174.66 114.139,-181.238"/>
</g>
<!-- Node121 -->
<g id="node59" class="node"><title>Node121</title>
<a xlink:href="a01725.xhtml#acd484ce910c93d12fceae694c1bba593" target="_top" xlink:title="Sets the reload value for a specific counter. ">
<polygon fill="white" stroke="black" points="117,-120.5 117,-141.5 239,-141.5 239,-120.5 117,-120.5"/>
<text text-anchor="middle" x="178" y="-128.5" font-family="Helvetica,sans-Serif" font-size="10.00">SetCounterReloadValue</text>
</a>
</g>
<!-- Node92&#45;&gt;Node121 -->
<g id="edge58" class="edge"><title>Node92&#45;&gt;Node121</title>
<path fill="none" stroke="midnightblue" d="M29.6944,-632.263C34.2257,-563.643 60.4467,-188.178 94,-151 97.8292,-146.757 102.381,-143.334 107.355,-140.582"/>
<polygon fill="midnightblue" stroke="midnightblue" points="109.055,-143.653 116.7,-136.318 106.149,-137.285 109.055,-143.653"/>
</g>
<!-- Node122 -->
<g id="node61" class="node"><title>Node122</title>
<a xlink:href="a01725.xhtml#a16af83dd8fce89d0da0a70b9159432c9" target="_top" xlink:title="Sets the AND/OR mask for a trigger type for a specific internal trigger. ">
<polygon fill="white" stroke="black" points="126.5,-80.5 126.5,-101.5 229.5,-101.5 229.5,-80.5 126.5,-80.5"/>
<text text-anchor="middle" x="178" y="-88.5" font-family="Helvetica,sans-Serif" font-size="10.00">SetTriggerAndMask</text>
</a>
</g>
<!-- Node92&#45;&gt;Node122 -->
<g id="edge60" class="edge"><title>Node92&#45;&gt;Node122</title>
<path fill="none" stroke="midnightblue" d="M29.5793,-632.332C33.5614,-560.713 57.8055,-151.5 94,-111 100.024,-104.259 107.871,-99.5845 116.348,-96.3764"/>
<polygon fill="midnightblue" stroke="midnightblue" points="117.608,-99.6502 126.123,-93.3456 115.535,-92.9642 117.608,-99.6502"/>
</g>
<!-- Node123 -->
<g id="node63" class="node"><title>Node123</title>
<a xlink:href="a01725.xhtml#aaea9ef21554e534ed31b39055d0d382b" target="_top" xlink:title="Sets the input mode for a specific internal trigger. ">
<polygon fill="white" stroke="black" points="124.5,-40.5 124.5,-61.5 231.5,-61.5 231.5,-40.5 124.5,-40.5"/>
<text text-anchor="middle" x="178" y="-48.5" font-family="Helvetica,sans-Serif" font-size="10.00">SetTriggerInputMode</text>
</a>
</g>
<!-- Node92&#45;&gt;Node123 -->
<g id="edge62" class="edge"><title>Node92&#45;&gt;Node123</title>
<path fill="none" stroke="midnightblue" d="M29.4985,-632.022C33.0271,-556.433 55.2236,-114.759 94,-71 99.6453,-64.6293 106.919,-60.1007 114.82,-56.9106"/>
<polygon fill="midnightblue" stroke="midnightblue" points="115.94,-60.2267 124.325,-53.7502 113.731,-53.5843 115.94,-60.2267"/>
</g>
<!-- Node124 -->
<g id="node65" class="node"><title>Node124</title>
<a xlink:href="a01725.xhtml#a6a78e216a592246a6d1f55ff60f89db7" target="_top" xlink:title="Sets the invert mask for a trigger type for a specific internal trigger. ">
<polygon fill="white" stroke="black" points="123,-0.5 123,-21.5 233,-21.5 233,-0.5 123,-0.5"/>
<text text-anchor="middle" x="178" y="-8.5" font-family="Helvetica,sans-Serif" font-size="10.00">SetTriggerInvertMask</text>
</a>
</g>
<!-- Node92&#45;&gt;Node124 -->
<g id="edge64" class="edge"><title>Node92&#45;&gt;Node124</title>
<path fill="none" stroke="midnightblue" d="M29.4035,-632.272C32.4248,-554.445 52.5409,-78.1337 94,-31 99.2908,-24.985 106.033,-20.6097 113.39,-17.4516"/>
<polygon fill="midnightblue" stroke="midnightblue" points="114.708,-20.698 122.975,-14.0706 112.38,-14.0966 114.708,-20.698"/>
</g>
</g>
</svg>
